<mxfile host="app.diagrams.net" modified="2023-05-02T17:26:11.825Z" agent="Mozilla/5.0 (Windows NT 10.0; Win64; x64) AppleWebKit/537.36 (KHTML, like Gecko) Chrome/109.0.0.0 Safari/537.36" etag="aQa5FJjFuODB7iEdPG6X" version="21.2.4" type="github">
  <diagram id="C5RBs43oDa-KdzZeNtuy" name="Page-1">
    <mxGraphModel dx="1907" dy="1979" grid="1" gridSize="10" guides="1" tooltips="1" connect="1" arrows="1" fold="1" page="1" pageScale="1" pageWidth="827" pageHeight="1169" math="0" shadow="0">
      <root>
        <mxCell id="WIyWlLk6GJQsqaUBKTNV-0" />
        <mxCell id="WIyWlLk6GJQsqaUBKTNV-1" parent="WIyWlLk6GJQsqaUBKTNV-0" />
        <mxCell id="WIyWlLk6GJQsqaUBKTNV-2" value="" style="rounded=0;html=1;jettySize=auto;orthogonalLoop=1;fontSize=11;endArrow=block;endFill=0;endSize=8;strokeWidth=1;shadow=0;labelBackgroundColor=none;edgeStyle=orthogonalEdgeStyle;" parent="WIyWlLk6GJQsqaUBKTNV-1" source="WIyWlLk6GJQsqaUBKTNV-3" target="WIyWlLk6GJQsqaUBKTNV-6" edge="1">
          <mxGeometry relative="1" as="geometry" />
        </mxCell>
        <mxCell id="WIyWlLk6GJQsqaUBKTNV-3" value="precio_base = 300&lt;br&gt;long_patente = len(patente)&lt;br&gt;t_patente = (patente)" style="rounded=1;whiteSpace=wrap;html=1;fontSize=12;glass=0;strokeWidth=1;shadow=0;" parent="WIyWlLk6GJQsqaUBKTNV-1" vertex="1">
          <mxGeometry x="430.5" y="20" width="220" height="50" as="geometry" />
        </mxCell>
        <mxCell id="WIyWlLk6GJQsqaUBKTNV-4" value="FALSE" style="rounded=0;html=1;jettySize=auto;orthogonalLoop=1;fontSize=11;endArrow=block;endFill=0;endSize=8;strokeWidth=1;shadow=0;labelBackgroundColor=none;edgeStyle=orthogonalEdgeStyle;exitX=0;exitY=0.5;exitDx=0;exitDy=0;" parent="WIyWlLk6GJQsqaUBKTNV-1" source="WIyWlLk6GJQsqaUBKTNV-6" edge="1">
          <mxGeometry x="-0.3333" y="-10" relative="1" as="geometry">
            <mxPoint as="offset" />
            <mxPoint x="75" y="220" as="targetPoint" />
            <Array as="points">
              <mxPoint x="75" y="170" />
            </Array>
          </mxGeometry>
        </mxCell>
        <mxCell id="WIyWlLk6GJQsqaUBKTNV-5" value="TRUE" style="edgeStyle=orthogonalEdgeStyle;rounded=0;html=1;jettySize=auto;orthogonalLoop=1;fontSize=11;endArrow=block;endFill=0;endSize=8;strokeWidth=1;shadow=0;labelBackgroundColor=none;entryX=0.5;entryY=0;entryDx=0;entryDy=0;" parent="WIyWlLk6GJQsqaUBKTNV-1" source="WIyWlLk6GJQsqaUBKTNV-6" target="gXXmLB0PNNtGwg0L60BA-6" edge="1">
          <mxGeometry x="-0.0459" y="10" relative="1" as="geometry">
            <mxPoint as="offset" />
            <mxPoint x="420" y="210" as="targetPoint" />
          </mxGeometry>
        </mxCell>
        <mxCell id="WIyWlLk6GJQsqaUBKTNV-6" value="longitud = 7&amp;nbsp;&lt;br&gt;AND los dos primeros digitos son Letras" style="rhombus;whiteSpace=wrap;html=1;shadow=0;fontFamily=Helvetica;fontSize=12;align=center;strokeWidth=1;spacing=6;spacingTop=-4;" parent="WIyWlLk6GJQsqaUBKTNV-1" vertex="1">
          <mxGeometry x="468" y="110" width="145" height="120" as="geometry" />
        </mxCell>
        <mxCell id="gXXmLB0PNNtGwg0L60BA-2" style="edgeStyle=orthogonalEdgeStyle;rounded=0;orthogonalLoop=1;jettySize=auto;html=1;exitX=0.5;exitY=1;exitDx=0;exitDy=0;entryX=0.5;entryY=0;entryDx=0;entryDy=0;" edge="1" parent="WIyWlLk6GJQsqaUBKTNV-1" source="gXXmLB0PNNtGwg0L60BA-5" target="WIyWlLk6GJQsqaUBKTNV-3">
          <mxGeometry relative="1" as="geometry">
            <mxPoint x="220" y="50" as="sourcePoint" />
          </mxGeometry>
        </mxCell>
        <mxCell id="gXXmLB0PNNtGwg0L60BA-4" style="edgeStyle=orthogonalEdgeStyle;rounded=0;orthogonalLoop=1;jettySize=auto;html=1;entryX=0.5;entryY=0;entryDx=0;entryDy=0;" edge="1" parent="WIyWlLk6GJQsqaUBKTNV-1" source="gXXmLB0PNNtGwg0L60BA-3" target="gXXmLB0PNNtGwg0L60BA-5">
          <mxGeometry relative="1" as="geometry">
            <mxPoint x="220" y="-10" as="targetPoint" />
          </mxGeometry>
        </mxCell>
        <mxCell id="gXXmLB0PNNtGwg0L60BA-3" value="Inicio" style="ellipse;whiteSpace=wrap;html=1;" vertex="1" parent="WIyWlLk6GJQsqaUBKTNV-1">
          <mxGeometry x="500.5" y="-160" width="80" height="50" as="geometry" />
        </mxCell>
        <mxCell id="gXXmLB0PNNtGwg0L60BA-5" value="patente, vehiculo, pago, pais, distancia&amp;nbsp;" style="shape=parallelogram;perimeter=parallelogramPerimeter;whiteSpace=wrap;html=1;fixedSize=1;" vertex="1" parent="WIyWlLk6GJQsqaUBKTNV-1">
          <mxGeometry x="445.5" y="-70" width="190" height="60" as="geometry" />
        </mxCell>
        <mxCell id="gXXmLB0PNNtGwg0L60BA-9" value="" style="edgeStyle=orthogonalEdgeStyle;rounded=0;orthogonalLoop=1;jettySize=auto;html=1;entryX=0.5;entryY=0;entryDx=0;entryDy=0;exitX=1;exitY=0.5;exitDx=0;exitDy=0;" edge="1" parent="WIyWlLk6GJQsqaUBKTNV-1" source="gXXmLB0PNNtGwg0L60BA-6" target="gXXmLB0PNNtGwg0L60BA-7">
          <mxGeometry relative="1" as="geometry">
            <mxPoint x="1046.925925925926" y="289.9966666666666" as="sourcePoint" />
          </mxGeometry>
        </mxCell>
        <mxCell id="gXXmLB0PNNtGwg0L60BA-19" value="" style="edgeStyle=orthogonalEdgeStyle;rounded=0;orthogonalLoop=1;jettySize=auto;html=1;entryX=0.5;entryY=0;entryDx=0;entryDy=0;exitX=0;exitY=0.5;exitDx=0;exitDy=0;" edge="1" parent="WIyWlLk6GJQsqaUBKTNV-1" source="gXXmLB0PNNtGwg0L60BA-6" target="gXXmLB0PNNtGwg0L60BA-18">
          <mxGeometry relative="1" as="geometry">
            <mxPoint x="550.0740740740739" y="289.9966666666666" as="sourcePoint" />
          </mxGeometry>
        </mxCell>
        <mxCell id="gXXmLB0PNNtGwg0L60BA-6" value="2, 3 ,4&amp;nbsp;&lt;br&gt;son&amp;nbsp;&lt;br&gt;numeros" style="rhombus;whiteSpace=wrap;html=1;" vertex="1" parent="WIyWlLk6GJQsqaUBKTNV-1">
          <mxGeometry x="780" y="240" width="100" height="90" as="geometry" />
        </mxCell>
        <mxCell id="gXXmLB0PNNtGwg0L60BA-11" style="edgeStyle=orthogonalEdgeStyle;rounded=0;orthogonalLoop=1;jettySize=auto;html=1;exitX=1;exitY=0.5;exitDx=0;exitDy=0;entryX=0.545;entryY=0;entryDx=0;entryDy=0;entryPerimeter=0;" edge="1" parent="WIyWlLk6GJQsqaUBKTNV-1" source="gXXmLB0PNNtGwg0L60BA-7" target="gXXmLB0PNNtGwg0L60BA-10">
          <mxGeometry relative="1" as="geometry">
            <mxPoint x="1227" y="354.93" as="targetPoint" />
          </mxGeometry>
        </mxCell>
        <mxCell id="gXXmLB0PNNtGwg0L60BA-13" style="edgeStyle=orthogonalEdgeStyle;rounded=0;orthogonalLoop=1;jettySize=auto;html=1;exitX=0;exitY=0.5;exitDx=0;exitDy=0;entryX=0.481;entryY=-0.01;entryDx=0;entryDy=0;entryPerimeter=0;" edge="1" parent="WIyWlLk6GJQsqaUBKTNV-1" source="gXXmLB0PNNtGwg0L60BA-7" target="gXXmLB0PNNtGwg0L60BA-12">
          <mxGeometry relative="1" as="geometry" />
        </mxCell>
        <mxCell id="gXXmLB0PNNtGwg0L60BA-7" value="5,6 son&amp;nbsp;&lt;br&gt;letras" style="rhombus;whiteSpace=wrap;html=1;" vertex="1" parent="WIyWlLk6GJQsqaUBKTNV-1">
          <mxGeometry x="1077" y="314.93" width="80" height="80" as="geometry" />
        </mxCell>
        <mxCell id="gXXmLB0PNNtGwg0L60BA-10" value="pais_vehiculo = &quot;Argentina&quot;" style="rounded=0;whiteSpace=wrap;html=1;" vertex="1" parent="WIyWlLk6GJQsqaUBKTNV-1">
          <mxGeometry x="1167" y="374.93" width="110" height="30" as="geometry" />
        </mxCell>
        <mxCell id="gXXmLB0PNNtGwg0L60BA-15" style="edgeStyle=orthogonalEdgeStyle;rounded=0;orthogonalLoop=1;jettySize=auto;html=1;exitX=1;exitY=0.5;exitDx=0;exitDy=0;entryX=0.5;entryY=0;entryDx=0;entryDy=0;" edge="1" parent="WIyWlLk6GJQsqaUBKTNV-1" source="gXXmLB0PNNtGwg0L60BA-12" target="gXXmLB0PNNtGwg0L60BA-14">
          <mxGeometry relative="1" as="geometry" />
        </mxCell>
        <mxCell id="gXXmLB0PNNtGwg0L60BA-17" style="edgeStyle=orthogonalEdgeStyle;rounded=0;orthogonalLoop=1;jettySize=auto;html=1;exitX=0;exitY=0.5;exitDx=0;exitDy=0;entryX=0.5;entryY=0;entryDx=0;entryDy=0;" edge="1" parent="WIyWlLk6GJQsqaUBKTNV-1" source="gXXmLB0PNNtGwg0L60BA-12" target="gXXmLB0PNNtGwg0L60BA-16">
          <mxGeometry relative="1" as="geometry" />
        </mxCell>
        <mxCell id="gXXmLB0PNNtGwg0L60BA-12" value="5,6 son&amp;nbsp;&lt;br&gt;numeros" style="rhombus;whiteSpace=wrap;html=1;" vertex="1" parent="WIyWlLk6GJQsqaUBKTNV-1">
          <mxGeometry x="961" y="374.93" width="80" height="80" as="geometry" />
        </mxCell>
        <mxCell id="gXXmLB0PNNtGwg0L60BA-14" value="pais_vehiculo = &quot;Bolivia&quot;" style="rounded=0;whiteSpace=wrap;html=1;" vertex="1" parent="WIyWlLk6GJQsqaUBKTNV-1">
          <mxGeometry x="1060" y="434.93" width="97" height="35.07" as="geometry" />
        </mxCell>
        <mxCell id="gXXmLB0PNNtGwg0L60BA-16" value="pais_vehiculo = &quot;Otro pais&quot;" style="rounded=0;whiteSpace=wrap;html=1;" vertex="1" parent="WIyWlLk6GJQsqaUBKTNV-1">
          <mxGeometry x="850" y="434.93" width="97" height="35.07" as="geometry" />
        </mxCell>
        <mxCell id="gXXmLB0PNNtGwg0L60BA-21" style="edgeStyle=orthogonalEdgeStyle;rounded=0;orthogonalLoop=1;jettySize=auto;html=1;entryX=0.5;entryY=0;entryDx=0;entryDy=0;" edge="1" parent="WIyWlLk6GJQsqaUBKTNV-1" source="gXXmLB0PNNtGwg0L60BA-18" target="gXXmLB0PNNtGwg0L60BA-20">
          <mxGeometry relative="1" as="geometry" />
        </mxCell>
        <mxCell id="gXXmLB0PNNtGwg0L60BA-28" style="edgeStyle=orthogonalEdgeStyle;rounded=0;orthogonalLoop=1;jettySize=auto;html=1;exitX=0;exitY=0.5;exitDx=0;exitDy=0;entryX=0.5;entryY=0;entryDx=0;entryDy=0;" edge="1" parent="WIyWlLk6GJQsqaUBKTNV-1" source="gXXmLB0PNNtGwg0L60BA-20" target="gXXmLB0PNNtGwg0L60BA-26">
          <mxGeometry relative="1" as="geometry" />
        </mxCell>
        <mxCell id="gXXmLB0PNNtGwg0L60BA-60" style="edgeStyle=orthogonalEdgeStyle;rounded=0;orthogonalLoop=1;jettySize=auto;html=1;exitX=0;exitY=0.5;exitDx=0;exitDy=0;entryX=0.5;entryY=0;entryDx=0;entryDy=0;" edge="1" parent="WIyWlLk6GJQsqaUBKTNV-1" source="gXXmLB0PNNtGwg0L60BA-18" target="gXXmLB0PNNtGwg0L60BA-59">
          <mxGeometry relative="1" as="geometry" />
        </mxCell>
        <mxCell id="gXXmLB0PNNtGwg0L60BA-18" value="2 es&amp;nbsp;&lt;br&gt;letra" style="rhombus;whiteSpace=wrap;html=1;" vertex="1" parent="WIyWlLk6GJQsqaUBKTNV-1">
          <mxGeometry x="457" y="314.93" width="60" height="60" as="geometry" />
        </mxCell>
        <mxCell id="gXXmLB0PNNtGwg0L60BA-25" style="edgeStyle=orthogonalEdgeStyle;rounded=0;orthogonalLoop=1;jettySize=auto;html=1;exitX=1;exitY=0.5;exitDx=0;exitDy=0;entryX=0.5;entryY=0;entryDx=0;entryDy=0;" edge="1" parent="WIyWlLk6GJQsqaUBKTNV-1" source="gXXmLB0PNNtGwg0L60BA-20" target="gXXmLB0PNNtGwg0L60BA-22">
          <mxGeometry relative="1" as="geometry" />
        </mxCell>
        <mxCell id="gXXmLB0PNNtGwg0L60BA-20" value="3,4,5,6&lt;br&gt;son &lt;br&gt;numeros" style="rhombus;whiteSpace=wrap;html=1;" vertex="1" parent="WIyWlLk6GJQsqaUBKTNV-1">
          <mxGeometry x="680" y="370" width="90" height="80" as="geometry" />
        </mxCell>
        <mxCell id="gXXmLB0PNNtGwg0L60BA-22" value="pais_vehiculo = &quot;Uruguay&quot;" style="rounded=0;whiteSpace=wrap;html=1;" vertex="1" parent="WIyWlLk6GJQsqaUBKTNV-1">
          <mxGeometry x="742" y="485.07" width="120" height="34.93" as="geometry" />
        </mxCell>
        <mxCell id="gXXmLB0PNNtGwg0L60BA-30" style="edgeStyle=orthogonalEdgeStyle;rounded=0;orthogonalLoop=1;jettySize=auto;html=1;exitX=1;exitY=0.5;exitDx=0;exitDy=0;entryX=0.5;entryY=0;entryDx=0;entryDy=0;" edge="1" parent="WIyWlLk6GJQsqaUBKTNV-1" source="gXXmLB0PNNtGwg0L60BA-26" target="gXXmLB0PNNtGwg0L60BA-29">
          <mxGeometry relative="1" as="geometry">
            <mxPoint x="673" y="525.0700000000002" as="targetPoint" />
          </mxGeometry>
        </mxCell>
        <mxCell id="gXXmLB0PNNtGwg0L60BA-32" style="edgeStyle=orthogonalEdgeStyle;rounded=0;orthogonalLoop=1;jettySize=auto;html=1;exitX=0;exitY=0.5;exitDx=0;exitDy=0;entryX=0.5;entryY=0;entryDx=0;entryDy=0;" edge="1" parent="WIyWlLk6GJQsqaUBKTNV-1" source="gXXmLB0PNNtGwg0L60BA-26" target="gXXmLB0PNNtGwg0L60BA-31">
          <mxGeometry relative="1" as="geometry" />
        </mxCell>
        <mxCell id="gXXmLB0PNNtGwg0L60BA-26" value="4 es Letra&lt;br&gt;5,6 son&amp;nbsp;&lt;br&gt;numeros" style="rhombus;whiteSpace=wrap;html=1;" vertex="1" parent="WIyWlLk6GJQsqaUBKTNV-1">
          <mxGeometry x="488" y="450" width="90" height="90" as="geometry" />
        </mxCell>
        <mxCell id="gXXmLB0PNNtGwg0L60BA-29" value="pais_vehiculo = &quot;Paraguay&quot;" style="rounded=0;whiteSpace=wrap;html=1;" vertex="1" parent="WIyWlLk6GJQsqaUBKTNV-1">
          <mxGeometry x="630" y="520" width="90" height="30" as="geometry" />
        </mxCell>
        <mxCell id="gXXmLB0PNNtGwg0L60BA-34" style="edgeStyle=orthogonalEdgeStyle;rounded=0;orthogonalLoop=1;jettySize=auto;html=1;exitX=1;exitY=0.5;exitDx=0;exitDy=0;entryX=0.5;entryY=0;entryDx=0;entryDy=0;" edge="1" parent="WIyWlLk6GJQsqaUBKTNV-1" source="gXXmLB0PNNtGwg0L60BA-31" target="gXXmLB0PNNtGwg0L60BA-33">
          <mxGeometry relative="1" as="geometry" />
        </mxCell>
        <mxCell id="gXXmLB0PNNtGwg0L60BA-40" style="edgeStyle=orthogonalEdgeStyle;rounded=0;orthogonalLoop=1;jettySize=auto;html=1;exitX=0;exitY=0.5;exitDx=0;exitDy=0;entryX=0.5;entryY=0;entryDx=0;entryDy=0;" edge="1" parent="WIyWlLk6GJQsqaUBKTNV-1" source="gXXmLB0PNNtGwg0L60BA-31" target="gXXmLB0PNNtGwg0L60BA-39">
          <mxGeometry relative="1" as="geometry" />
        </mxCell>
        <mxCell id="gXXmLB0PNNtGwg0L60BA-31" value="3 es&amp;nbsp;&lt;br&gt;numero" style="rhombus;whiteSpace=wrap;html=1;" vertex="1" parent="WIyWlLk6GJQsqaUBKTNV-1">
          <mxGeometry x="358" y="520" width="70" height="65.07" as="geometry" />
        </mxCell>
        <mxCell id="gXXmLB0PNNtGwg0L60BA-36" style="edgeStyle=orthogonalEdgeStyle;rounded=0;orthogonalLoop=1;jettySize=auto;html=1;exitX=1;exitY=0.5;exitDx=0;exitDy=0;entryX=0.5;entryY=0;entryDx=0;entryDy=0;" edge="1" parent="WIyWlLk6GJQsqaUBKTNV-1" source="gXXmLB0PNNtGwg0L60BA-33" target="gXXmLB0PNNtGwg0L60BA-35">
          <mxGeometry relative="1" as="geometry" />
        </mxCell>
        <mxCell id="gXXmLB0PNNtGwg0L60BA-38" style="edgeStyle=orthogonalEdgeStyle;rounded=0;orthogonalLoop=1;jettySize=auto;html=1;exitX=0;exitY=0.5;exitDx=0;exitDy=0;entryX=0.5;entryY=0;entryDx=0;entryDy=0;" edge="1" parent="WIyWlLk6GJQsqaUBKTNV-1" source="gXXmLB0PNNtGwg0L60BA-33" target="gXXmLB0PNNtGwg0L60BA-37">
          <mxGeometry relative="1" as="geometry" />
        </mxCell>
        <mxCell id="gXXmLB0PNNtGwg0L60BA-33" value="4 es Letra&lt;br&gt;5,6 numeros" style="rhombus;whiteSpace=wrap;html=1;" vertex="1" parent="WIyWlLk6GJQsqaUBKTNV-1">
          <mxGeometry x="442" y="575.07" width="90" height="90" as="geometry" />
        </mxCell>
        <mxCell id="gXXmLB0PNNtGwg0L60BA-35" value="pais_vehiculo = &quot;Brasil&quot;" style="rounded=0;whiteSpace=wrap;html=1;" vertex="1" parent="WIyWlLk6GJQsqaUBKTNV-1">
          <mxGeometry x="558" y="650.07" width="110" height="40" as="geometry" />
        </mxCell>
        <mxCell id="gXXmLB0PNNtGwg0L60BA-37" value="pais_vehiculo = &quot;Otro&quot;" style="rounded=0;whiteSpace=wrap;html=1;" vertex="1" parent="WIyWlLk6GJQsqaUBKTNV-1">
          <mxGeometry x="308" y="650.07" width="110" height="35" as="geometry" />
        </mxCell>
        <mxCell id="gXXmLB0PNNtGwg0L60BA-39" value="pais_vehiculo = &quot;Otro&quot;" style="rounded=0;whiteSpace=wrap;html=1;" vertex="1" parent="WIyWlLk6GJQsqaUBKTNV-1">
          <mxGeometry x="220.5" y="575.07" width="100" height="30" as="geometry" />
        </mxCell>
        <mxCell id="gXXmLB0PNNtGwg0L60BA-43" value="" style="endArrow=none;html=1;rounded=0;" edge="1" parent="WIyWlLk6GJQsqaUBKTNV-1">
          <mxGeometry width="50" height="50" relative="1" as="geometry">
            <mxPoint x="368" y="725.07" as="sourcePoint" />
            <mxPoint x="618" y="725.07" as="targetPoint" />
          </mxGeometry>
        </mxCell>
        <mxCell id="gXXmLB0PNNtGwg0L60BA-45" value="" style="endArrow=none;html=1;rounded=0;" edge="1" parent="WIyWlLk6GJQsqaUBKTNV-1">
          <mxGeometry width="50" height="50" relative="1" as="geometry">
            <mxPoint x="368" y="725.07" as="sourcePoint" />
            <mxPoint x="368" y="685.07" as="targetPoint" />
          </mxGeometry>
        </mxCell>
        <mxCell id="gXXmLB0PNNtGwg0L60BA-46" value="" style="endArrow=none;html=1;rounded=0;" edge="1" parent="WIyWlLk6GJQsqaUBKTNV-1">
          <mxGeometry width="50" height="50" relative="1" as="geometry">
            <mxPoint x="618" y="725.07" as="sourcePoint" />
            <mxPoint x="618" y="690.07" as="targetPoint" />
          </mxGeometry>
        </mxCell>
        <mxCell id="gXXmLB0PNNtGwg0L60BA-47" value="" style="endArrow=none;html=1;rounded=0;" edge="1" parent="WIyWlLk6GJQsqaUBKTNV-1">
          <mxGeometry width="50" height="50" relative="1" as="geometry">
            <mxPoint x="273" y="745.07" as="sourcePoint" />
            <mxPoint x="273" y="605.07" as="targetPoint" />
          </mxGeometry>
        </mxCell>
        <mxCell id="gXXmLB0PNNtGwg0L60BA-48" value="" style="endArrow=none;html=1;rounded=0;" edge="1" parent="WIyWlLk6GJQsqaUBKTNV-1">
          <mxGeometry width="50" height="50" relative="1" as="geometry">
            <mxPoint x="490" y="745.07" as="sourcePoint" />
            <mxPoint x="490" y="725.07" as="targetPoint" />
          </mxGeometry>
        </mxCell>
        <mxCell id="gXXmLB0PNNtGwg0L60BA-49" value="" style="endArrow=none;html=1;rounded=0;" edge="1" parent="WIyWlLk6GJQsqaUBKTNV-1">
          <mxGeometry width="50" height="50" relative="1" as="geometry">
            <mxPoint x="270" y="745" as="sourcePoint" />
            <mxPoint x="488" y="745" as="targetPoint" />
          </mxGeometry>
        </mxCell>
        <mxCell id="gXXmLB0PNNtGwg0L60BA-50" value="pais_vehiculo = &quot;Otro&quot;" style="rounded=0;whiteSpace=wrap;html=1;" vertex="1" parent="WIyWlLk6GJQsqaUBKTNV-1">
          <mxGeometry x="20" y="220" width="120" height="60" as="geometry" />
        </mxCell>
        <mxCell id="gXXmLB0PNNtGwg0L60BA-51" value="" style="endArrow=none;html=1;rounded=0;" edge="1" parent="WIyWlLk6GJQsqaUBKTNV-1">
          <mxGeometry width="50" height="50" relative="1" as="geometry">
            <mxPoint x="392.79" y="765.07" as="sourcePoint" />
            <mxPoint x="392.79" y="745.07" as="targetPoint" />
            <Array as="points">
              <mxPoint x="392.79" y="755.07" />
            </Array>
          </mxGeometry>
        </mxCell>
        <mxCell id="gXXmLB0PNNtGwg0L60BA-52" value="" style="endArrow=none;html=1;rounded=0;" edge="1" parent="WIyWlLk6GJQsqaUBKTNV-1">
          <mxGeometry width="50" height="50" relative="1" as="geometry">
            <mxPoint x="678" y="765.07" as="sourcePoint" />
            <mxPoint x="678" y="554.9300000000001" as="targetPoint" />
            <Array as="points">
              <mxPoint x="678" y="564.9300000000001" />
            </Array>
          </mxGeometry>
        </mxCell>
        <mxCell id="gXXmLB0PNNtGwg0L60BA-53" value="" style="endArrow=none;html=1;rounded=0;" edge="1" parent="WIyWlLk6GJQsqaUBKTNV-1">
          <mxGeometry width="50" height="50" relative="1" as="geometry">
            <mxPoint x="393" y="765.07" as="sourcePoint" />
            <mxPoint x="678" y="765.07" as="targetPoint" />
          </mxGeometry>
        </mxCell>
        <mxCell id="gXXmLB0PNNtGwg0L60BA-54" value="" style="endArrow=none;html=1;rounded=0;" edge="1" parent="WIyWlLk6GJQsqaUBKTNV-1">
          <mxGeometry width="50" height="50" relative="1" as="geometry">
            <mxPoint x="488" y="790" as="sourcePoint" />
            <mxPoint x="488" y="765.07" as="targetPoint" />
          </mxGeometry>
        </mxCell>
        <mxCell id="gXXmLB0PNNtGwg0L60BA-55" value="" style="endArrow=none;html=1;rounded=0;" edge="1" parent="WIyWlLk6GJQsqaUBKTNV-1">
          <mxGeometry width="50" height="50" relative="1" as="geometry">
            <mxPoint x="800" y="790" as="sourcePoint" />
            <mxPoint x="801.35" y="520" as="targetPoint" />
            <Array as="points">
              <mxPoint x="801.35" y="530" />
            </Array>
          </mxGeometry>
        </mxCell>
        <mxCell id="gXXmLB0PNNtGwg0L60BA-56" value="" style="endArrow=none;html=1;rounded=0;" edge="1" parent="WIyWlLk6GJQsqaUBKTNV-1">
          <mxGeometry width="50" height="50" relative="1" as="geometry">
            <mxPoint x="487" y="790" as="sourcePoint" />
            <mxPoint x="800" y="790" as="targetPoint" />
          </mxGeometry>
        </mxCell>
        <mxCell id="gXXmLB0PNNtGwg0L60BA-58" value="" style="endArrow=none;html=1;rounded=0;" edge="1" parent="WIyWlLk6GJQsqaUBKTNV-1">
          <mxGeometry width="50" height="50" relative="1" as="geometry">
            <mxPoint x="720" y="810" as="sourcePoint" />
            <mxPoint x="720" y="790" as="targetPoint" />
          </mxGeometry>
        </mxCell>
        <mxCell id="gXXmLB0PNNtGwg0L60BA-59" value="pais_vehiculo = &quot;Otro&quot;" style="rounded=0;whiteSpace=wrap;html=1;" vertex="1" parent="WIyWlLk6GJQsqaUBKTNV-1">
          <mxGeometry x="147.5" y="380" width="120" height="60" as="geometry" />
        </mxCell>
        <mxCell id="gXXmLB0PNNtGwg0L60BA-63" value="" style="endArrow=none;html=1;rounded=0;" edge="1" parent="WIyWlLk6GJQsqaUBKTNV-1">
          <mxGeometry width="50" height="50" relative="1" as="geometry">
            <mxPoint x="210" y="810" as="sourcePoint" />
            <mxPoint x="206.82999999999993" y="440" as="targetPoint" />
            <Array as="points">
              <mxPoint x="206.82999999999993" y="450" />
            </Array>
          </mxGeometry>
        </mxCell>
        <mxCell id="gXXmLB0PNNtGwg0L60BA-64" value="" style="endArrow=none;html=1;rounded=0;" edge="1" parent="WIyWlLk6GJQsqaUBKTNV-1">
          <mxGeometry width="50" height="50" relative="1" as="geometry">
            <mxPoint x="210" y="810" as="sourcePoint" />
            <mxPoint x="720" y="810" as="targetPoint" />
          </mxGeometry>
        </mxCell>
        <mxCell id="gXXmLB0PNNtGwg0L60BA-65" value="" style="endArrow=none;html=1;rounded=0;" edge="1" parent="WIyWlLk6GJQsqaUBKTNV-1">
          <mxGeometry width="50" height="50" relative="1" as="geometry">
            <mxPoint x="500" y="840" as="sourcePoint" />
            <mxPoint x="500" y="810" as="targetPoint" />
          </mxGeometry>
        </mxCell>
        <mxCell id="gXXmLB0PNNtGwg0L60BA-66" value="" style="endArrow=none;html=1;rounded=0;" edge="1" parent="WIyWlLk6GJQsqaUBKTNV-1">
          <mxGeometry width="50" height="50" relative="1" as="geometry">
            <mxPoint x="900" y="494.79" as="sourcePoint" />
            <mxPoint x="1110" y="495" as="targetPoint" />
          </mxGeometry>
        </mxCell>
        <mxCell id="gXXmLB0PNNtGwg0L60BA-67" value="" style="endArrow=none;html=1;rounded=0;" edge="1" parent="WIyWlLk6GJQsqaUBKTNV-1">
          <mxGeometry width="50" height="50" relative="1" as="geometry">
            <mxPoint x="898.29" y="494.93" as="sourcePoint" />
            <mxPoint x="898.29" y="470.00000000000006" as="targetPoint" />
          </mxGeometry>
        </mxCell>
        <mxCell id="gXXmLB0PNNtGwg0L60BA-68" value="" style="endArrow=none;html=1;rounded=0;" edge="1" parent="WIyWlLk6GJQsqaUBKTNV-1">
          <mxGeometry width="50" height="50" relative="1" as="geometry">
            <mxPoint x="1108.2" y="494.79" as="sourcePoint" />
            <mxPoint x="1108.2" y="469.86000000000007" as="targetPoint" />
          </mxGeometry>
        </mxCell>
        <mxCell id="gXXmLB0PNNtGwg0L60BA-69" value="" style="endArrow=none;html=1;rounded=0;" edge="1" parent="WIyWlLk6GJQsqaUBKTNV-1">
          <mxGeometry width="50" height="50" relative="1" as="geometry">
            <mxPoint x="1000.82" y="520" as="sourcePoint" />
            <mxPoint x="1000.82" y="495.07000000000005" as="targetPoint" />
          </mxGeometry>
        </mxCell>
        <mxCell id="gXXmLB0PNNtGwg0L60BA-70" value="" style="endArrow=none;html=1;rounded=0;" edge="1" parent="WIyWlLk6GJQsqaUBKTNV-1">
          <mxGeometry width="50" height="50" relative="1" as="geometry">
            <mxPoint x="1000" y="520" as="sourcePoint" />
            <mxPoint x="1230" y="520" as="targetPoint" />
          </mxGeometry>
        </mxCell>
        <mxCell id="gXXmLB0PNNtGwg0L60BA-71" value="" style="endArrow=none;html=1;rounded=0;" edge="1" parent="WIyWlLk6GJQsqaUBKTNV-1">
          <mxGeometry width="50" height="50" relative="1" as="geometry">
            <mxPoint x="1230" y="520" as="sourcePoint" />
            <mxPoint x="1230" y="404.93000000000006" as="targetPoint" />
          </mxGeometry>
        </mxCell>
        <mxCell id="gXXmLB0PNNtGwg0L60BA-72" value="" style="endArrow=none;html=1;rounded=0;" edge="1" parent="WIyWlLk6GJQsqaUBKTNV-1">
          <mxGeometry width="50" height="50" relative="1" as="geometry">
            <mxPoint x="1117" y="840.14" as="sourcePoint" />
            <mxPoint x="1116.9099999999999" y="520" as="targetPoint" />
            <Array as="points">
              <mxPoint x="1116.9099999999999" y="530" />
            </Array>
          </mxGeometry>
        </mxCell>
        <mxCell id="gXXmLB0PNNtGwg0L60BA-73" value="" style="endArrow=none;html=1;rounded=0;" edge="1" parent="WIyWlLk6GJQsqaUBKTNV-1">
          <mxGeometry width="50" height="50" relative="1" as="geometry">
            <mxPoint x="500" y="840" as="sourcePoint" />
            <mxPoint x="1120" y="840" as="targetPoint" />
          </mxGeometry>
        </mxCell>
        <mxCell id="gXXmLB0PNNtGwg0L60BA-74" value="" style="endArrow=none;html=1;rounded=0;" edge="1" parent="WIyWlLk6GJQsqaUBKTNV-1">
          <mxGeometry width="50" height="50" relative="1" as="geometry">
            <mxPoint x="830" y="870" as="sourcePoint" />
            <mxPoint x="829.74" y="840" as="targetPoint" />
          </mxGeometry>
        </mxCell>
        <mxCell id="gXXmLB0PNNtGwg0L60BA-77" style="edgeStyle=orthogonalEdgeStyle;rounded=0;orthogonalLoop=1;jettySize=auto;html=1;exitX=1;exitY=0.5;exitDx=0;exitDy=0;entryX=0.5;entryY=0;entryDx=0;entryDy=0;" edge="1" parent="WIyWlLk6GJQsqaUBKTNV-1" source="gXXmLB0PNNtGwg0L60BA-75" target="gXXmLB0PNNtGwg0L60BA-76">
          <mxGeometry relative="1" as="geometry" />
        </mxCell>
        <mxCell id="gXXmLB0PNNtGwg0L60BA-79" style="edgeStyle=orthogonalEdgeStyle;rounded=0;orthogonalLoop=1;jettySize=auto;html=1;exitX=0;exitY=0.5;exitDx=0;exitDy=0;entryX=0.5;entryY=0;entryDx=0;entryDy=0;" edge="1" parent="WIyWlLk6GJQsqaUBKTNV-1" source="gXXmLB0PNNtGwg0L60BA-75" target="gXXmLB0PNNtGwg0L60BA-78">
          <mxGeometry relative="1" as="geometry" />
        </mxCell>
        <mxCell id="gXXmLB0PNNtGwg0L60BA-75" value="vehiculo == 0" style="rhombus;whiteSpace=wrap;html=1;" vertex="1" parent="WIyWlLk6GJQsqaUBKTNV-1">
          <mxGeometry x="557" y="910" width="90" height="80" as="geometry" />
        </mxCell>
        <mxCell id="gXXmLB0PNNtGwg0L60BA-76" value="importe_basico = precio_base - precio_base*0.5" style="rounded=0;whiteSpace=wrap;html=1;" vertex="1" parent="WIyWlLk6GJQsqaUBKTNV-1">
          <mxGeometry x="693" y="970" width="120" height="60" as="geometry" />
        </mxCell>
        <mxCell id="gXXmLB0PNNtGwg0L60BA-81" style="edgeStyle=orthogonalEdgeStyle;rounded=0;orthogonalLoop=1;jettySize=auto;html=1;exitX=1;exitY=0.5;exitDx=0;exitDy=0;entryX=0.5;entryY=0;entryDx=0;entryDy=0;" edge="1" parent="WIyWlLk6GJQsqaUBKTNV-1" source="gXXmLB0PNNtGwg0L60BA-78" target="gXXmLB0PNNtGwg0L60BA-80">
          <mxGeometry relative="1" as="geometry" />
        </mxCell>
        <mxCell id="gXXmLB0PNNtGwg0L60BA-92" style="edgeStyle=orthogonalEdgeStyle;rounded=0;orthogonalLoop=1;jettySize=auto;html=1;exitX=0;exitY=0.5;exitDx=0;exitDy=0;entryX=0.5;entryY=0;entryDx=0;entryDy=0;" edge="1" parent="WIyWlLk6GJQsqaUBKTNV-1" source="gXXmLB0PNNtGwg0L60BA-78" target="gXXmLB0PNNtGwg0L60BA-91">
          <mxGeometry relative="1" as="geometry" />
        </mxCell>
        <mxCell id="gXXmLB0PNNtGwg0L60BA-78" value="vehiculo == 1" style="rhombus;whiteSpace=wrap;html=1;" vertex="1" parent="WIyWlLk6GJQsqaUBKTNV-1">
          <mxGeometry x="362" y="970" width="95" height="90" as="geometry" />
        </mxCell>
        <mxCell id="gXXmLB0PNNtGwg0L60BA-83" style="edgeStyle=orthogonalEdgeStyle;rounded=0;orthogonalLoop=1;jettySize=auto;html=1;exitX=1;exitY=0.5;exitDx=0;exitDy=0;entryX=0.5;entryY=0;entryDx=0;entryDy=0;" edge="1" parent="WIyWlLk6GJQsqaUBKTNV-1" source="gXXmLB0PNNtGwg0L60BA-80" target="gXXmLB0PNNtGwg0L60BA-82">
          <mxGeometry relative="1" as="geometry" />
        </mxCell>
        <mxCell id="gXXmLB0PNNtGwg0L60BA-85" style="edgeStyle=orthogonalEdgeStyle;rounded=0;orthogonalLoop=1;jettySize=auto;html=1;exitX=0;exitY=0.5;exitDx=0;exitDy=0;entryX=0.5;entryY=0;entryDx=0;entryDy=0;" edge="1" parent="WIyWlLk6GJQsqaUBKTNV-1" source="gXXmLB0PNNtGwg0L60BA-80" target="gXXmLB0PNNtGwg0L60BA-84">
          <mxGeometry relative="1" as="geometry" />
        </mxCell>
        <mxCell id="gXXmLB0PNNtGwg0L60BA-80" value="pais == 2" style="rhombus;whiteSpace=wrap;html=1;" vertex="1" parent="WIyWlLk6GJQsqaUBKTNV-1">
          <mxGeometry x="519" y="1040" width="80" height="80" as="geometry" />
        </mxCell>
        <mxCell id="gXXmLB0PNNtGwg0L60BA-82" value="importe_basico = precio_base + 100" style="rounded=0;whiteSpace=wrap;html=1;" vertex="1" parent="WIyWlLk6GJQsqaUBKTNV-1">
          <mxGeometry x="622" y="1100" width="120" height="40" as="geometry" />
        </mxCell>
        <mxCell id="gXXmLB0PNNtGwg0L60BA-87" style="edgeStyle=orthogonalEdgeStyle;rounded=0;orthogonalLoop=1;jettySize=auto;html=1;exitX=1;exitY=0.5;exitDx=0;exitDy=0;entryX=0.5;entryY=0;entryDx=0;entryDy=0;" edge="1" parent="WIyWlLk6GJQsqaUBKTNV-1" source="gXXmLB0PNNtGwg0L60BA-84" target="gXXmLB0PNNtGwg0L60BA-86">
          <mxGeometry relative="1" as="geometry" />
        </mxCell>
        <mxCell id="gXXmLB0PNNtGwg0L60BA-89" style="edgeStyle=orthogonalEdgeStyle;rounded=0;orthogonalLoop=1;jettySize=auto;html=1;exitX=0;exitY=0.5;exitDx=0;exitDy=0;entryX=0.5;entryY=0;entryDx=0;entryDy=0;" edge="1" parent="WIyWlLk6GJQsqaUBKTNV-1" source="gXXmLB0PNNtGwg0L60BA-84" target="gXXmLB0PNNtGwg0L60BA-88">
          <mxGeometry relative="1" as="geometry" />
        </mxCell>
        <mxCell id="gXXmLB0PNNtGwg0L60BA-84" value="pais == 1" style="rhombus;whiteSpace=wrap;html=1;" vertex="1" parent="WIyWlLk6GJQsqaUBKTNV-1">
          <mxGeometry x="392" y="1100" width="80" height="80" as="geometry" />
        </mxCell>
        <mxCell id="gXXmLB0PNNtGwg0L60BA-86" value="importe_basico = precio_base - 100" style="rounded=0;whiteSpace=wrap;html=1;" vertex="1" parent="WIyWlLk6GJQsqaUBKTNV-1">
          <mxGeometry x="482" y="1179" width="117" height="40" as="geometry" />
        </mxCell>
        <mxCell id="gXXmLB0PNNtGwg0L60BA-88" value="importe_basico = precio_base" style="rounded=0;whiteSpace=wrap;html=1;" vertex="1" parent="WIyWlLk6GJQsqaUBKTNV-1">
          <mxGeometry x="245" y="1180" width="117" height="40" as="geometry" />
        </mxCell>
        <mxCell id="gXXmLB0PNNtGwg0L60BA-91" value="importe_basico = precio_base + precio_base*0.6" style="rounded=0;whiteSpace=wrap;html=1;" vertex="1" parent="WIyWlLk6GJQsqaUBKTNV-1">
          <mxGeometry x="140" y="1050" width="120" height="50" as="geometry" />
        </mxCell>
        <mxCell id="gXXmLB0PNNtGwg0L60BA-93" value="" style="endArrow=none;html=1;rounded=0;" edge="1" parent="WIyWlLk6GJQsqaUBKTNV-1">
          <mxGeometry width="50" height="50" relative="1" as="geometry">
            <mxPoint x="202" y="1310" as="sourcePoint" />
            <mxPoint x="198.41999999999996" y="1100" as="targetPoint" />
            <Array as="points">
              <mxPoint x="198.41999999999996" y="1110" />
            </Array>
          </mxGeometry>
        </mxCell>
        <mxCell id="gXXmLB0PNNtGwg0L60BA-94" value="" style="endArrow=none;html=1;rounded=0;" edge="1" parent="WIyWlLk6GJQsqaUBKTNV-1">
          <mxGeometry width="50" height="50" relative="1" as="geometry">
            <mxPoint x="751" y="1330" as="sourcePoint" />
            <mxPoint x="751.41" y="1030" as="targetPoint" />
            <Array as="points">
              <mxPoint x="751.41" y="1040" />
            </Array>
          </mxGeometry>
        </mxCell>
        <mxCell id="gXXmLB0PNNtGwg0L60BA-95" value="" style="endArrow=none;html=1;rounded=0;" edge="1" parent="WIyWlLk6GJQsqaUBKTNV-1">
          <mxGeometry width="50" height="50" relative="1" as="geometry">
            <mxPoint x="682" y="1290" as="sourcePoint" />
            <mxPoint x="681.5" y="1140" as="targetPoint" />
            <Array as="points">
              <mxPoint x="681.5" y="1150" />
            </Array>
          </mxGeometry>
        </mxCell>
        <mxCell id="gXXmLB0PNNtGwg0L60BA-96" value="" style="endArrow=none;html=1;rounded=0;" edge="1" parent="WIyWlLk6GJQsqaUBKTNV-1">
          <mxGeometry width="50" height="50" relative="1" as="geometry">
            <mxPoint x="302" y="1250" as="sourcePoint" />
            <mxPoint x="542" y="1250" as="targetPoint" />
          </mxGeometry>
        </mxCell>
        <mxCell id="gXXmLB0PNNtGwg0L60BA-97" value="" style="endArrow=none;html=1;rounded=0;" edge="1" parent="WIyWlLk6GJQsqaUBKTNV-1">
          <mxGeometry width="50" height="50" relative="1" as="geometry">
            <mxPoint x="304" y="1250" as="sourcePoint" />
            <mxPoint x="304.47" y="1220" as="targetPoint" />
          </mxGeometry>
        </mxCell>
        <mxCell id="gXXmLB0PNNtGwg0L60BA-98" value="" style="endArrow=none;html=1;rounded=0;" edge="1" parent="WIyWlLk6GJQsqaUBKTNV-1">
          <mxGeometry width="50" height="50" relative="1" as="geometry">
            <mxPoint x="542" y="1250" as="sourcePoint" />
            <mxPoint x="542.47" y="1220" as="targetPoint" />
          </mxGeometry>
        </mxCell>
        <mxCell id="gXXmLB0PNNtGwg0L60BA-99" value="" style="endArrow=none;html=1;rounded=0;" edge="1" parent="WIyWlLk6GJQsqaUBKTNV-1">
          <mxGeometry width="50" height="50" relative="1" as="geometry">
            <mxPoint x="432" y="1290" as="sourcePoint" />
            <mxPoint x="432.1700000000001" y="1250" as="targetPoint" />
          </mxGeometry>
        </mxCell>
        <mxCell id="gXXmLB0PNNtGwg0L60BA-100" value="" style="endArrow=none;html=1;rounded=0;" edge="1" parent="WIyWlLk6GJQsqaUBKTNV-1">
          <mxGeometry width="50" height="50" relative="1" as="geometry">
            <mxPoint x="432" y="1290" as="sourcePoint" />
            <mxPoint x="682" y="1290" as="targetPoint" />
          </mxGeometry>
        </mxCell>
        <mxCell id="gXXmLB0PNNtGwg0L60BA-101" value="" style="endArrow=none;html=1;rounded=0;" edge="1" parent="WIyWlLk6GJQsqaUBKTNV-1">
          <mxGeometry width="50" height="50" relative="1" as="geometry">
            <mxPoint x="572" y="1310" as="sourcePoint" />
            <mxPoint x="572" y="1290" as="targetPoint" />
          </mxGeometry>
        </mxCell>
        <mxCell id="gXXmLB0PNNtGwg0L60BA-102" value="" style="endArrow=none;html=1;rounded=0;" edge="1" parent="WIyWlLk6GJQsqaUBKTNV-1">
          <mxGeometry width="50" height="50" relative="1" as="geometry">
            <mxPoint x="200" y="1310" as="sourcePoint" />
            <mxPoint x="572" y="1310" as="targetPoint" />
          </mxGeometry>
        </mxCell>
        <mxCell id="gXXmLB0PNNtGwg0L60BA-103" value="" style="endArrow=none;html=1;rounded=0;" edge="1" parent="WIyWlLk6GJQsqaUBKTNV-1">
          <mxGeometry width="50" height="50" relative="1" as="geometry">
            <mxPoint x="431.78999999999996" y="1330" as="sourcePoint" />
            <mxPoint x="431.78999999999996" y="1310" as="targetPoint" />
          </mxGeometry>
        </mxCell>
        <mxCell id="gXXmLB0PNNtGwg0L60BA-104" value="" style="endArrow=none;html=1;rounded=0;" edge="1" parent="WIyWlLk6GJQsqaUBKTNV-1">
          <mxGeometry width="50" height="50" relative="1" as="geometry">
            <mxPoint x="432" y="1330" as="sourcePoint" />
            <mxPoint x="752" y="1330" as="targetPoint" />
          </mxGeometry>
        </mxCell>
        <mxCell id="gXXmLB0PNNtGwg0L60BA-105" value="" style="endArrow=none;html=1;rounded=0;" edge="1" parent="WIyWlLk6GJQsqaUBKTNV-1">
          <mxGeometry width="50" height="50" relative="1" as="geometry">
            <mxPoint x="596.9499999999999" y="1350" as="sourcePoint" />
            <mxPoint x="596.9499999999999" y="1330" as="targetPoint" />
          </mxGeometry>
        </mxCell>
        <mxCell id="gXXmLB0PNNtGwg0L60BA-109" style="edgeStyle=orthogonalEdgeStyle;rounded=0;orthogonalLoop=1;jettySize=auto;html=1;exitX=1;exitY=0.5;exitDx=0;exitDy=0;entryX=0.5;entryY=0;entryDx=0;entryDy=0;" edge="1" parent="WIyWlLk6GJQsqaUBKTNV-1" source="gXXmLB0PNNtGwg0L60BA-106" target="gXXmLB0PNNtGwg0L60BA-107">
          <mxGeometry relative="1" as="geometry" />
        </mxCell>
        <mxCell id="gXXmLB0PNNtGwg0L60BA-110" style="edgeStyle=orthogonalEdgeStyle;rounded=0;orthogonalLoop=1;jettySize=auto;html=1;exitX=0;exitY=0.5;exitDx=0;exitDy=0;entryX=0.5;entryY=0;entryDx=0;entryDy=0;" edge="1" parent="WIyWlLk6GJQsqaUBKTNV-1" source="gXXmLB0PNNtGwg0L60BA-106" target="gXXmLB0PNNtGwg0L60BA-108">
          <mxGeometry relative="1" as="geometry" />
        </mxCell>
        <mxCell id="gXXmLB0PNNtGwg0L60BA-106" value="pago == 2" style="rhombus;whiteSpace=wrap;html=1;" vertex="1" parent="WIyWlLk6GJQsqaUBKTNV-1">
          <mxGeometry x="557" y="1350" width="80" height="80" as="geometry" />
        </mxCell>
        <mxCell id="gXXmLB0PNNtGwg0L60BA-107" value="precio_final = importe_basico - importe_basico*0.1" style="rounded=0;whiteSpace=wrap;html=1;" vertex="1" parent="WIyWlLk6GJQsqaUBKTNV-1">
          <mxGeometry x="682" y="1410" width="120" height="60" as="geometry" />
        </mxCell>
        <mxCell id="gXXmLB0PNNtGwg0L60BA-108" value="precio_final = importe_basico" style="rounded=0;whiteSpace=wrap;html=1;" vertex="1" parent="WIyWlLk6GJQsqaUBKTNV-1">
          <mxGeometry x="412" y="1410" width="120" height="60" as="geometry" />
        </mxCell>
        <mxCell id="gXXmLB0PNNtGwg0L60BA-111" value="" style="endArrow=none;html=1;rounded=0;" edge="1" parent="WIyWlLk6GJQsqaUBKTNV-1">
          <mxGeometry width="50" height="50" relative="1" as="geometry">
            <mxPoint x="472" y="1490" as="sourcePoint" />
            <mxPoint x="742" y="1490" as="targetPoint" />
          </mxGeometry>
        </mxCell>
        <mxCell id="gXXmLB0PNNtGwg0L60BA-112" value="" style="endArrow=none;html=1;rounded=0;" edge="1" parent="WIyWlLk6GJQsqaUBKTNV-1">
          <mxGeometry width="50" height="50" relative="1" as="geometry">
            <mxPoint x="471.86" y="1490" as="sourcePoint" />
            <mxPoint x="471.86" y="1470" as="targetPoint" />
          </mxGeometry>
        </mxCell>
        <mxCell id="gXXmLB0PNNtGwg0L60BA-113" value="" style="endArrow=none;html=1;rounded=0;" edge="1" parent="WIyWlLk6GJQsqaUBKTNV-1">
          <mxGeometry width="50" height="50" relative="1" as="geometry">
            <mxPoint x="742" y="1490" as="sourcePoint" />
            <mxPoint x="742" y="1470" as="targetPoint" />
          </mxGeometry>
        </mxCell>
        <mxCell id="gXXmLB0PNNtGwg0L60BA-114" value="" style="endArrow=none;html=1;rounded=0;" edge="1" parent="WIyWlLk6GJQsqaUBKTNV-1">
          <mxGeometry width="50" height="50" relative="1" as="geometry">
            <mxPoint x="596.83" y="1510" as="sourcePoint" />
            <mxPoint x="596.83" y="1490" as="targetPoint" />
          </mxGeometry>
        </mxCell>
        <mxCell id="gXXmLB0PNNtGwg0L60BA-115" style="edgeStyle=orthogonalEdgeStyle;rounded=0;orthogonalLoop=1;jettySize=auto;html=1;exitX=1;exitY=0.5;exitDx=0;exitDy=0;entryX=0.5;entryY=0;entryDx=0;entryDy=0;" edge="1" parent="WIyWlLk6GJQsqaUBKTNV-1" source="gXXmLB0PNNtGwg0L60BA-117" target="gXXmLB0PNNtGwg0L60BA-118">
          <mxGeometry relative="1" as="geometry" />
        </mxCell>
        <mxCell id="gXXmLB0PNNtGwg0L60BA-116" style="edgeStyle=orthogonalEdgeStyle;rounded=0;orthogonalLoop=1;jettySize=auto;html=1;exitX=0;exitY=0.5;exitDx=0;exitDy=0;entryX=0.5;entryY=0;entryDx=0;entryDy=0;" edge="1" parent="WIyWlLk6GJQsqaUBKTNV-1" source="gXXmLB0PNNtGwg0L60BA-117" target="gXXmLB0PNNtGwg0L60BA-119">
          <mxGeometry relative="1" as="geometry" />
        </mxCell>
        <mxCell id="gXXmLB0PNNtGwg0L60BA-117" value="distancia&lt;br&gt;==0" style="rhombus;whiteSpace=wrap;html=1;" vertex="1" parent="WIyWlLk6GJQsqaUBKTNV-1">
          <mxGeometry x="557" y="1510" width="80" height="80" as="geometry" />
        </mxCell>
        <mxCell id="gXXmLB0PNNtGwg0L60BA-118" value="promedio_pago_km = &quot;No hay valor promedio aún&quot;" style="rounded=0;whiteSpace=wrap;html=1;" vertex="1" parent="WIyWlLk6GJQsqaUBKTNV-1">
          <mxGeometry x="682" y="1570" width="120" height="60" as="geometry" />
        </mxCell>
        <mxCell id="gXXmLB0PNNtGwg0L60BA-119" value="promedio_pago_km = round((precio_final/distancia),2)" style="rounded=0;whiteSpace=wrap;html=1;" vertex="1" parent="WIyWlLk6GJQsqaUBKTNV-1">
          <mxGeometry x="362" y="1570" width="180" height="60" as="geometry" />
        </mxCell>
        <mxCell id="gXXmLB0PNNtGwg0L60BA-120" value="" style="endArrow=none;html=1;rounded=0;" edge="1" parent="WIyWlLk6GJQsqaUBKTNV-1">
          <mxGeometry width="50" height="50" relative="1" as="geometry">
            <mxPoint x="472" y="1650" as="sourcePoint" />
            <mxPoint x="742" y="1650" as="targetPoint" />
          </mxGeometry>
        </mxCell>
        <mxCell id="gXXmLB0PNNtGwg0L60BA-121" value="" style="endArrow=none;html=1;rounded=0;" edge="1" parent="WIyWlLk6GJQsqaUBKTNV-1">
          <mxGeometry width="50" height="50" relative="1" as="geometry">
            <mxPoint x="471.86" y="1650" as="sourcePoint" />
            <mxPoint x="471.86" y="1630" as="targetPoint" />
          </mxGeometry>
        </mxCell>
        <mxCell id="gXXmLB0PNNtGwg0L60BA-122" value="" style="endArrow=none;html=1;rounded=0;" edge="1" parent="WIyWlLk6GJQsqaUBKTNV-1">
          <mxGeometry width="50" height="50" relative="1" as="geometry">
            <mxPoint x="742" y="1650" as="sourcePoint" />
            <mxPoint x="742" y="1630" as="targetPoint" />
          </mxGeometry>
        </mxCell>
        <mxCell id="gXXmLB0PNNtGwg0L60BA-123" value="" style="endArrow=none;html=1;rounded=0;" edge="1" parent="WIyWlLk6GJQsqaUBKTNV-1">
          <mxGeometry width="50" height="50" relative="1" as="geometry">
            <mxPoint x="596.83" y="1670" as="sourcePoint" />
            <mxPoint x="596.83" y="1650" as="targetPoint" />
          </mxGeometry>
        </mxCell>
        <mxCell id="gXXmLB0PNNtGwg0L60BA-124" style="edgeStyle=orthogonalEdgeStyle;rounded=0;orthogonalLoop=1;jettySize=auto;html=1;exitX=1;exitY=0.5;exitDx=0;exitDy=0;entryX=0.5;entryY=0;entryDx=0;entryDy=0;" edge="1" parent="WIyWlLk6GJQsqaUBKTNV-1" source="gXXmLB0PNNtGwg0L60BA-126" target="gXXmLB0PNNtGwg0L60BA-127">
          <mxGeometry relative="1" as="geometry" />
        </mxCell>
        <mxCell id="gXXmLB0PNNtGwg0L60BA-125" style="edgeStyle=orthogonalEdgeStyle;rounded=0;orthogonalLoop=1;jettySize=auto;html=1;exitX=0;exitY=0.5;exitDx=0;exitDy=0;entryX=0.5;entryY=0;entryDx=0;entryDy=0;" edge="1" parent="WIyWlLk6GJQsqaUBKTNV-1" source="gXXmLB0PNNtGwg0L60BA-126" target="gXXmLB0PNNtGwg0L60BA-133">
          <mxGeometry relative="1" as="geometry">
            <mxPoint x="452" y="1730" as="targetPoint" />
          </mxGeometry>
        </mxCell>
        <mxCell id="gXXmLB0PNNtGwg0L60BA-126" value="pais == 0" style="rhombus;whiteSpace=wrap;html=1;" vertex="1" parent="WIyWlLk6GJQsqaUBKTNV-1">
          <mxGeometry x="559.5" y="1670" width="75" height="70" as="geometry" />
        </mxCell>
        <mxCell id="gXXmLB0PNNtGwg0L60BA-127" value="pais = &quot;Argentina&quot;" style="rounded=0;whiteSpace=wrap;html=1;" vertex="1" parent="WIyWlLk6GJQsqaUBKTNV-1">
          <mxGeometry x="682" y="1730" width="90" height="30" as="geometry" />
        </mxCell>
        <mxCell id="gXXmLB0PNNtGwg0L60BA-135" style="edgeStyle=orthogonalEdgeStyle;rounded=0;orthogonalLoop=1;jettySize=auto;html=1;exitX=1;exitY=0.5;exitDx=0;exitDy=0;entryX=0.5;entryY=0;entryDx=0;entryDy=0;" edge="1" parent="WIyWlLk6GJQsqaUBKTNV-1" source="gXXmLB0PNNtGwg0L60BA-133" target="gXXmLB0PNNtGwg0L60BA-134">
          <mxGeometry relative="1" as="geometry" />
        </mxCell>
        <mxCell id="gXXmLB0PNNtGwg0L60BA-137" style="edgeStyle=orthogonalEdgeStyle;rounded=0;orthogonalLoop=1;jettySize=auto;html=1;exitX=0;exitY=0.5;exitDx=0;exitDy=0;entryX=0.5;entryY=0;entryDx=0;entryDy=0;" edge="1" parent="WIyWlLk6GJQsqaUBKTNV-1" source="gXXmLB0PNNtGwg0L60BA-133" target="gXXmLB0PNNtGwg0L60BA-136">
          <mxGeometry relative="1" as="geometry" />
        </mxCell>
        <mxCell id="gXXmLB0PNNtGwg0L60BA-133" value="pais == 1" style="rhombus;whiteSpace=wrap;html=1;" vertex="1" parent="WIyWlLk6GJQsqaUBKTNV-1">
          <mxGeometry x="402" y="1730" width="80" height="70" as="geometry" />
        </mxCell>
        <mxCell id="gXXmLB0PNNtGwg0L60BA-134" value="pais = &quot;Bolivia&quot;" style="rounded=0;whiteSpace=wrap;html=1;" vertex="1" parent="WIyWlLk6GJQsqaUBKTNV-1">
          <mxGeometry x="495.5" y="1788" width="90" height="30" as="geometry" />
        </mxCell>
        <mxCell id="gXXmLB0PNNtGwg0L60BA-139" style="edgeStyle=orthogonalEdgeStyle;rounded=0;orthogonalLoop=1;jettySize=auto;html=1;exitX=1;exitY=0.5;exitDx=0;exitDy=0;entryX=0.5;entryY=0;entryDx=0;entryDy=0;" edge="1" parent="WIyWlLk6GJQsqaUBKTNV-1" source="gXXmLB0PNNtGwg0L60BA-136" target="gXXmLB0PNNtGwg0L60BA-138">
          <mxGeometry relative="1" as="geometry" />
        </mxCell>
        <mxCell id="gXXmLB0PNNtGwg0L60BA-141" style="edgeStyle=orthogonalEdgeStyle;rounded=0;orthogonalLoop=1;jettySize=auto;html=1;exitX=0;exitY=0.5;exitDx=0;exitDy=0;entryX=0.5;entryY=0;entryDx=0;entryDy=0;" edge="1" parent="WIyWlLk6GJQsqaUBKTNV-1" source="gXXmLB0PNNtGwg0L60BA-136" target="gXXmLB0PNNtGwg0L60BA-140">
          <mxGeometry relative="1" as="geometry" />
        </mxCell>
        <mxCell id="gXXmLB0PNNtGwg0L60BA-136" value="pais == 2" style="rhombus;whiteSpace=wrap;html=1;" vertex="1" parent="WIyWlLk6GJQsqaUBKTNV-1">
          <mxGeometry x="289" y="1800" width="80" height="70" as="geometry" />
        </mxCell>
        <mxCell id="gXXmLB0PNNtGwg0L60BA-138" value="pais = &quot;Brasil&quot;" style="rounded=0;whiteSpace=wrap;html=1;" vertex="1" parent="WIyWlLk6GJQsqaUBKTNV-1">
          <mxGeometry x="382" y="1860" width="90" height="30" as="geometry" />
        </mxCell>
        <mxCell id="gXXmLB0PNNtGwg0L60BA-143" style="edgeStyle=orthogonalEdgeStyle;rounded=0;orthogonalLoop=1;jettySize=auto;html=1;exitX=1;exitY=0.5;exitDx=0;exitDy=0;entryX=0.5;entryY=0;entryDx=0;entryDy=0;" edge="1" parent="WIyWlLk6GJQsqaUBKTNV-1" source="gXXmLB0PNNtGwg0L60BA-140" target="gXXmLB0PNNtGwg0L60BA-142">
          <mxGeometry relative="1" as="geometry" />
        </mxCell>
        <mxCell id="gXXmLB0PNNtGwg0L60BA-145" style="edgeStyle=orthogonalEdgeStyle;rounded=0;orthogonalLoop=1;jettySize=auto;html=1;exitX=0;exitY=0.5;exitDx=0;exitDy=0;entryX=0.5;entryY=0;entryDx=0;entryDy=0;" edge="1" parent="WIyWlLk6GJQsqaUBKTNV-1" source="gXXmLB0PNNtGwg0L60BA-140" target="gXXmLB0PNNtGwg0L60BA-144">
          <mxGeometry relative="1" as="geometry" />
        </mxCell>
        <mxCell id="gXXmLB0PNNtGwg0L60BA-140" value="pais == 3" style="rhombus;whiteSpace=wrap;html=1;" vertex="1" parent="WIyWlLk6GJQsqaUBKTNV-1">
          <mxGeometry x="172" y="1860" width="80" height="70" as="geometry" />
        </mxCell>
        <mxCell id="gXXmLB0PNNtGwg0L60BA-142" value="pais = &quot;Paraguay&quot;" style="rounded=0;whiteSpace=wrap;html=1;" vertex="1" parent="WIyWlLk6GJQsqaUBKTNV-1">
          <mxGeometry x="262" y="1920" width="100" height="30" as="geometry" />
        </mxCell>
        <mxCell id="gXXmLB0PNNtGwg0L60BA-144" value="pais = &quot;Uruguay&quot;" style="rounded=0;whiteSpace=wrap;html=1;" vertex="1" parent="WIyWlLk6GJQsqaUBKTNV-1">
          <mxGeometry x="80" y="1920" width="100" height="30" as="geometry" />
        </mxCell>
        <mxCell id="gXXmLB0PNNtGwg0L60BA-146" value="" style="endArrow=none;html=1;rounded=0;" edge="1" parent="WIyWlLk6GJQsqaUBKTNV-1">
          <mxGeometry width="50" height="50" relative="1" as="geometry">
            <mxPoint x="130" y="1970" as="sourcePoint" />
            <mxPoint x="312" y="1970" as="targetPoint" />
          </mxGeometry>
        </mxCell>
        <mxCell id="gXXmLB0PNNtGwg0L60BA-147" value="" style="endArrow=none;html=1;rounded=0;" edge="1" parent="WIyWlLk6GJQsqaUBKTNV-1">
          <mxGeometry width="50" height="50" relative="1" as="geometry">
            <mxPoint x="214" y="1990" as="sourcePoint" />
            <mxPoint x="432" y="1990" as="targetPoint" />
          </mxGeometry>
        </mxCell>
        <mxCell id="gXXmLB0PNNtGwg0L60BA-148" value="" style="endArrow=none;html=1;rounded=0;" edge="1" parent="WIyWlLk6GJQsqaUBKTNV-1">
          <mxGeometry width="50" height="50" relative="1" as="geometry">
            <mxPoint x="332" y="2000" as="sourcePoint" />
            <mxPoint x="542" y="2000" as="targetPoint" />
          </mxGeometry>
        </mxCell>
        <mxCell id="gXXmLB0PNNtGwg0L60BA-149" value="" style="endArrow=none;html=1;rounded=0;" edge="1" parent="WIyWlLk6GJQsqaUBKTNV-1">
          <mxGeometry width="50" height="50" relative="1" as="geometry">
            <mxPoint x="446.5" y="2020" as="sourcePoint" />
            <mxPoint x="732" y="2020" as="targetPoint" />
          </mxGeometry>
        </mxCell>
        <mxCell id="gXXmLB0PNNtGwg0L60BA-150" value="" style="endArrow=none;html=1;rounded=0;" edge="1" parent="WIyWlLk6GJQsqaUBKTNV-1">
          <mxGeometry width="50" height="50" relative="1" as="geometry">
            <mxPoint x="732" y="2020" as="sourcePoint" />
            <mxPoint x="726.66" y="1760" as="targetPoint" />
            <Array as="points">
              <mxPoint x="726.66" y="1770" />
            </Array>
          </mxGeometry>
        </mxCell>
        <mxCell id="gXXmLB0PNNtGwg0L60BA-151" value="" style="endArrow=none;html=1;rounded=0;" edge="1" parent="WIyWlLk6GJQsqaUBKTNV-1">
          <mxGeometry width="50" height="50" relative="1" as="geometry">
            <mxPoint x="542" y="2000" as="sourcePoint" />
            <mxPoint x="542" y="1818" as="targetPoint" />
            <Array as="points">
              <mxPoint x="542" y="1828" />
            </Array>
          </mxGeometry>
        </mxCell>
        <mxCell id="gXXmLB0PNNtGwg0L60BA-154" value="" style="endArrow=none;html=1;rounded=0;" edge="1" parent="WIyWlLk6GJQsqaUBKTNV-1">
          <mxGeometry width="50" height="50" relative="1" as="geometry">
            <mxPoint x="446.79999999999995" y="2020" as="sourcePoint" />
            <mxPoint x="446.79999999999995" y="2000" as="targetPoint" />
          </mxGeometry>
        </mxCell>
        <mxCell id="gXXmLB0PNNtGwg0L60BA-155" value="" style="endArrow=none;html=1;rounded=0;" edge="1" parent="WIyWlLk6GJQsqaUBKTNV-1">
          <mxGeometry width="50" height="50" relative="1" as="geometry">
            <mxPoint x="332" y="2000" as="sourcePoint" />
            <mxPoint x="332" y="1990" as="targetPoint" />
          </mxGeometry>
        </mxCell>
        <mxCell id="gXXmLB0PNNtGwg0L60BA-156" value="" style="endArrow=none;html=1;rounded=0;" edge="1" parent="WIyWlLk6GJQsqaUBKTNV-1">
          <mxGeometry width="50" height="50" relative="1" as="geometry">
            <mxPoint x="213.99999999999994" y="1990" as="sourcePoint" />
            <mxPoint x="213.99999999999994" y="1970" as="targetPoint" />
          </mxGeometry>
        </mxCell>
        <mxCell id="gXXmLB0PNNtGwg0L60BA-157" value="" style="endArrow=none;html=1;rounded=0;" edge="1" parent="WIyWlLk6GJQsqaUBKTNV-1">
          <mxGeometry width="50" height="50" relative="1" as="geometry">
            <mxPoint x="311.98" y="1970" as="sourcePoint" />
            <mxPoint x="311.98" y="1950" as="targetPoint" />
          </mxGeometry>
        </mxCell>
        <mxCell id="gXXmLB0PNNtGwg0L60BA-158" value="" style="endArrow=none;html=1;rounded=0;" edge="1" parent="WIyWlLk6GJQsqaUBKTNV-1">
          <mxGeometry width="50" height="50" relative="1" as="geometry">
            <mxPoint x="130" y="1970" as="sourcePoint" />
            <mxPoint x="130" y="1950" as="targetPoint" />
          </mxGeometry>
        </mxCell>
        <mxCell id="gXXmLB0PNNtGwg0L60BA-159" value="" style="endArrow=none;html=1;rounded=0;" edge="1" parent="WIyWlLk6GJQsqaUBKTNV-1">
          <mxGeometry width="50" height="50" relative="1" as="geometry">
            <mxPoint x="432" y="1990" as="sourcePoint" />
            <mxPoint x="431.8299999999999" y="1890" as="targetPoint" />
            <Array as="points">
              <mxPoint x="431.8299999999999" y="1900" />
            </Array>
          </mxGeometry>
        </mxCell>
        <mxCell id="gXXmLB0PNNtGwg0L60BA-160" value="" style="endArrow=none;html=1;rounded=0;" edge="1" parent="WIyWlLk6GJQsqaUBKTNV-1">
          <mxGeometry width="50" height="50" relative="1" as="geometry">
            <mxPoint x="596.66" y="2040" as="sourcePoint" />
            <mxPoint x="596.66" y="2020" as="targetPoint" />
          </mxGeometry>
        </mxCell>
        <mxCell id="gXXmLB0PNNtGwg0L60BA-161" value="pais_vehiculo&lt;br&gt;importe_basico&lt;br&gt;precio_final&lt;br&gt;promedio_pago_km" style="shape=document;whiteSpace=wrap;html=1;boundedLbl=1;" vertex="1" parent="WIyWlLk6GJQsqaUBKTNV-1">
          <mxGeometry x="529.5" y="2040" width="135" height="100" as="geometry" />
        </mxCell>
        <mxCell id="gXXmLB0PNNtGwg0L60BA-166" value="Fin" style="ellipse;whiteSpace=wrap;html=1;" vertex="1" parent="WIyWlLk6GJQsqaUBKTNV-1">
          <mxGeometry x="554.5" y="2150" width="80" height="50" as="geometry" />
        </mxCell>
        <mxCell id="gXXmLB0PNNtGwg0L60BA-167" value="" style="endArrow=none;html=1;rounded=0;exitX=0.539;exitY=-0.005;exitDx=0;exitDy=0;exitPerimeter=0;entryX=0.498;entryY=0.845;entryDx=0;entryDy=0;entryPerimeter=0;" edge="1" parent="WIyWlLk6GJQsqaUBKTNV-1" source="gXXmLB0PNNtGwg0L60BA-166" target="gXXmLB0PNNtGwg0L60BA-161">
          <mxGeometry width="50" height="50" relative="1" as="geometry">
            <mxPoint x="596.8" y="2150" as="sourcePoint" />
            <mxPoint x="596.8" y="2130" as="targetPoint" />
          </mxGeometry>
        </mxCell>
        <mxCell id="gXXmLB0PNNtGwg0L60BA-168" value="" style="endArrow=none;html=1;rounded=0;" edge="1" parent="WIyWlLk6GJQsqaUBKTNV-1">
          <mxGeometry width="50" height="50" relative="1" as="geometry">
            <mxPoint x="80" y="850" as="sourcePoint" />
            <mxPoint x="79.5" y="280" as="targetPoint" />
            <Array as="points">
              <mxPoint x="79.5" y="290" />
            </Array>
          </mxGeometry>
        </mxCell>
        <mxCell id="gXXmLB0PNNtGwg0L60BA-169" value="" style="endArrow=none;html=1;rounded=0;" edge="1" parent="WIyWlLk6GJQsqaUBKTNV-1">
          <mxGeometry width="50" height="50" relative="1" as="geometry">
            <mxPoint x="80" y="870" as="sourcePoint" />
            <mxPoint x="830" y="870" as="targetPoint" />
          </mxGeometry>
        </mxCell>
        <mxCell id="gXXmLB0PNNtGwg0L60BA-170" value="" style="endArrow=none;html=1;rounded=0;exitX=0.5;exitY=0;exitDx=0;exitDy=0;" edge="1" parent="WIyWlLk6GJQsqaUBKTNV-1" source="gXXmLB0PNNtGwg0L60BA-75">
          <mxGeometry width="50" height="50" relative="1" as="geometry">
            <mxPoint x="602.02" y="900" as="sourcePoint" />
            <mxPoint x="601.76" y="870" as="targetPoint" />
          </mxGeometry>
        </mxCell>
      </root>
    </mxGraphModel>
  </diagram>
</mxfile>
